# xmcd
#
# Track frame offsets:
#	150
#	19346
#	38808
#	52656
#	70593
#	85408
#	105118
#	124437
#	143900
#	157709
#	175650
#	190525
#
# Disc length: 2803 seconds
#
# Revision: 2
# Processed by: cddbd v1.5.2PL0 Copyright (c) Steve Scherf et al.
# Submitted via: audiograbber 1.83.01
#
DISCID=8a0af10c
DTITLE=Little Big Town - CB20601
DYEAR=1900
DGENRE=Karaoke
TTITLE0=Boondocks w/vocal
TTITLE1=Bring It On Home w/vocal
TTITLE2=Don't Waste My Time w/vocal
TTITLE3=Everything Changes w/vocal
TTITLE4=Looking For A Reason w/vocal
TTITLE5=Good As Gone w/vocal
TTITLE6=Boondocks
TTITLE7=Bring It On Home
TTITLE8=Don't Waste My Time
TTITLE9=Everything Changes
TTITLE10=Looking For A Reason
TTITLE11=Good As Gone
EXTD=
EXTT0=
EXTT1=
EXTT2=
EXTT3=
EXTT4=
EXTT5=
EXTT6=
EXTT7=
EXTT8=
EXTT9=
EXTT10=
EXTT11=
PLAYORDER=
